# xmcd
#
# Track frame offsets: 
#        150
#        28291
#        54049
#        77134
#        96894
#        118131
#        140886
#        173486
#        203953
#
# Disc length: 2964 seconds
#
# Revision: 0
# Processed by: cddbd v1.5.2PL0 Copyright (c) Steve Scherf et al.
# Submitted via: ExactAudioCopy v1.0b3
#
DISCID=7a0b9209
DTITLE=Various Artist - Dua Em Tim Dong Hoa Vang
DYEAR=2007
DGENRE=
TTITLE0=Duc Tuan - Nghin trung xa cach
TTITLE1=Doan Trang - Ngay xua Hoang Thi
TTITLE2=Anh Tuyet - Dua em tim dong hoa vang
TTITLE3=nhom 5 Dong Ke - Hoa Xuan ca
TTITLE4=Quang Linh - Ba Me que
TTITLE5=Duy Quang - Cay dan bo quen
TTITLE6=Duc Tuan - Ky niem
TTITLE7=Quang Linh - Que ngheo
TTITLE8=top ca thieu nhi - Em be que
EXTD=
EXTT0=
EXTT1=
EXTT2=
EXTT3=
EXTT4=
EXTT5=
EXTT6=
EXTT7=
EXTT8=
PLAYORDER=
